<?xml version="1.0" encoding="utf-8"?>
<!-- Generator: Adobe Illustrator 18.0.0, SVG Export Plug-In . SVG Version: 6.00 Build 0)  -->
<!DOCTYPE svg PUBLIC "-//W3C//DTD SVG 1.1//EN" "http://www.w3.org/Graphics/SVG/1.1/DTD/svg11.dtd">
<svg version="1.1" xmlns="http://www.w3.org/2000/svg" xmlns:xlink="http://www.w3.org/1999/xlink" x="0px" y="0px"
	 viewBox="0 0 2272 1872" enable-background="new 0 0 2272 1872" xml:space="preserve">
<g id="Background">
	<rect x="-10.2" y="-27.1" fill="#FFFFFF" width="2304.2" height="1940.5"/>
</g>
<g id="Object">
	<path fill="#EBEBEC" d="M802.7,887.3c0-12.6-8.3-28.4-32.3-33.7l1.4,0c0-25.8-20.9-46.8-46.8-46.8c0-62.7-15.9-95.9-36-162.4
		s-17-183.3-17-183.3c10.8,0,17-16.2,17-16.2h3.9c6.8,0,12.4-5.5,12.4-12.4c0-6.8-5.5-12.4-12.4-12.4H689c0,0-5.8-15.3-16-16.2
		c3.6-0.9-2.1-16,8.9-32.5c11.8-17.8,32.7-34,35.8-37.1c3.1-3.1,2.3-16.2,0-19.3s-21.8,0-21.8,0s-13-22-23.8-26.9
		c-5.9-2.6-15.2-3.8-22.4-4.4v-12.8c0-6-4.9-10.8-10.8-10.8c-6,0-10.8,4.9-10.8,10.8v12.8c-7.3,0.6-16.6,1.8-22.4,4.4
		c-10.8,4.8-23.8,26.9-23.8,26.9s-19.5-3.1-21.8,0c-2.3,3.1-3.1,16.2,0,19.3c3.1,3.1,24,19.3,35.8,37.1c11,16.5,5.3,31.7,8.9,32.5
		c-10.2,0.9-16,16.2-16,16.2h-3.9c-6.8,0-12.4,5.5-12.4,12.4c0,6.8,5.5,12.4,12.4,12.4h3.9c0,0,6.2,16.2,17,16.2
		c0,0,3.1,116.8-17,183.3c-20.1,66.5-36,99.8-36,162.4c-25.8,0-46.8,20.9-46.8,46.8l1.4,0c-24.1,5.3-32.3,21.1-32.3,33.7h164H802.7z
		"/>
	<path fill="#EBEBEC" d="M1176,885.2c0-12.6-8.3-28.3-32.3-33.7l1.4,0c0-25.8-20.9-46.8-46.8-46.8c0-62.7-15.9-95.9-36-162.4
		s-17-102.9-17-102.9c10.8,0,17-16.2,17-16.2h3.9c6.8,0,12.4-5.5,12.4-12.4c0-6.8-5.5-12.4-12.4-12.4h-3.9c0,0-6.2-16.2-17-16.2
		c2.9,0.4,21.4-14.7,20.9-43.6c-0.3-14.9-9.6-33.5-19.6-48.4l-28.3,29.8l-11.3,3l24.9-51.8c-3.7-4-6.7-6.7-8.4-7.4h0.5v-17.8
		c0-6.4-5.2-11.6-11.6-11.6h0c-6.4,0-11.6,5.2-11.6,11.6v17.8c-7.7,3.1-42.3,45.9-42.8,74.8c-0.5,28.9,18,44,20.9,43.6
		c-10.8,0-17,16.2-17,16.2h-3.9c-6.8,0-12.4,5.5-12.4,12.4c0,6.8,5.5,12.4,12.4,12.4h3.9c0,0,6.2,16.2,17,16.2
		c0,0,3.1,36.4-17,102.9c-20.1,66.5-36,99.8-36,162.4c-25.8,0-46.8,20.9-46.8,46.8l1.4,0c-24.1,5.3-32.3,21.1-32.3,33.7h164H1176z"
		/>
	<path fill="#EBEBEC" d="M1520.6,885.2c0-12.6-7.8-28.3-30.7-33.7l1.3,0c0-25.8-19.9-46.8-44.4-46.8h-20.1v-28.9h0
		c0.7-0.2,1.4-0.5,2.2-0.8c11.2-4.6,17.4-14.6,20.5-26.3c4.9-18.3,2.4-40.8,0-54.3c-4.1-22.7-41.3-68.1-52.6-78.4
		c-6.6-6-10.1-12.3-10.4-16.7c0-0.3,0-0.6,0-0.9c0,0,0,0,0,0c0.1-2.6,1.5-4.3,4.2-4.4c7.2-0.4,22.7,21,36.1,22.1s19.6,7.2,17.5,17.9
		c-0.2,1.2-0.4,2.5-0.5,3.7c-0.1,1.2-0.1,2.4-0.1,3.6c0,0.1,0,0.1,0,0.2c0,0.5,0,1,0.1,1.5c0,0.8,0.1,1.6,0.2,2.3c0,0,0,0.1,0,0.1
		c0.5,3.7,1.5,7,3,9.4c0,0,0,0,0,0.1c0.8,1.2,1.7,2.1,2.7,2.7c0.5,0.3,1,0.5,1.5,0.6c0.4,0.1,0.9,0.2,1.3,0.2c0.2,0,0.5,0,0.7,0
		c8,0.7,31.5,11.1,38.5,4.1c7-7,29.5-26.6,28.1-36c0-0.3-0.1-0.6-0.2-0.9c-3-8.9-46.1-81.4-45.4-93.7c0-0.2,0-0.4,0.1-0.5
		c0.1-0.3,0.1-0.6,0.2-0.9c0.2-1.2,0.2-2.2,0.2-3.2c0-0.4-0.1-0.8-0.1-1.2c0-0.1,0-0.2-0.1-0.3c-1-5.1-5.3-6.3-5.3-12.3
		c0-0.5,0.1-1,0.2-1.4c0,0,0-0.1,0-0.1c0.1-0.2,0.1-0.4,0.2-0.6c3-6.9,19.1-13.6,19.1-20.9c0-0.9-0.4-1.7-1-2.5
		c-5.2-6.5-28.9-10.3-28.9-13.1c0-3.1,0-18.6,0-18.6v0c0,0-13.6,0.8-24.5,3.9c-1.1,0.3-2.2,0.7-3.3,1c-0.3,0.1-0.6,0.2-0.9,0.3
		c-0.1,0-0.2,0.1-0.4,0.1c-0.2,0.1-0.4,0.1-0.6,0.2c-0.1,0-0.3,0.1-0.4,0.1c-0.2,0-0.3,0.1-0.5,0.1c-0.2,0.1-0.3,0.1-0.5,0.1
		c-0.1,0-0.2,0.1-0.4,0.1c-0.6,0.2-1.3,0.4-1.9,0.5c-0.1,0-0.1,0-0.2,0c-0.2,0.1-0.4,0.1-0.6,0.2c-0.1,0-0.1,0-0.2,0
		c-0.2,0.1-0.4,0.1-0.6,0.1c0,0-0.1,0-0.1,0c-1,0.2-2,0.4-3.1,0.5c0,0,0,0,0,0c-0.3,0-0.5,0.1-0.8,0.1c0,0,0,0,0,0
		c-5.1,0.6-11.6,0.3-23.1-0.9c0,0,0,0,0,0c-4.6-0.5-9.9-1.1-16.2-1.9c-96.9-6.4-145.4,58-153.7,120.9s15.5,115.5,41.3,155.7
		c25.8,40.2,35.1,38.2,35.1,38.2v28.9h-20.1c-24.5,0-44.4,20.9-44.4,46.8l1.3,0c-22.9,5.3-30.7,21.1-30.7,33.7h155.8H1520.6z"/>
	<path fill="#EBEBEC" d="M1846,851.5l1.3,0c0-25.8-19.7-46.8-44-46.8h-3.8c-5.9-87.1-26.2-166.7-26.2-166.7c16.7,0,26.2-25,26.2-25
		h6c10.5,0,19.1-8.5,19.1-19.1c0-10.5-8.5-19.1-19.1-19.1h-6l7.7-61.5h-32.5l-6.2,24.8h-23.2l-3.1-24.8h-20.1H1702l-3.1,24.8h-23.2
		l-6.2-24.8h-32.5l7.7,61.5h-6c-10.5,0-19.1,8.5-19.1,19.1c0,10.5,8.5,19.1,19.1,19.1h6c0,0,9.5,25,26.2,25
		c0,0-20.3,79.6-26.2,166.7h-3.8c-24.3,0-44,20.9-44,46.8l1.3,0c-22.7,5.3-30.4,21.1-30.4,33.7h154.3h154.3
		C1876.4,872.6,1868.7,856.8,1846,851.5z"/>
	<path fill="#EBEBEC" d="M2225.4,885.2c0-12.6-7.6-28.3-29.8-33.7l1.3,0c0-25.8-19.3-46.8-43.1-46.8h3.3c0,0-5.4-14.2-21.7-24.2
		c-16.2-10.1-31.7-43.6-31.7-72.5c1.4,0,2.7,0,3.9,0c10.8,0,17-16.2,17-16.2h3.9c6.8,0,12.4-5.5,12.4-12.4c0-6.8-5.5-12.4-12.4-12.4
		h-3.9c0,0-5.6-14.7-15.5-16.1c13.2-10.3,21.7-26.4,21.7-44.5c0-31.2-25.3-56.5-56.5-56.5c-31.2,0-56.5,25.3-56.5,56.5
		c0,18.1,8.5,34.1,21.7,44.5c-9.9,1.4-15.5,16.1-15.5,16.1h-3.9c-6.8,0-12.4,5.5-12.4,12.4c0,6.8,5.5,12.4,12.4,12.4h3.9
		c0,0,6.2,16.2,17,16.2c1.2,0,2.5,0,3.9,0c0,28.9-15.5,62.4-31.7,72.5c-16.2,10.1-21.7,24.2-21.7,24.2h3.3
		c-23.8,0-43.1,20.9-43.1,46.8l1.3,0c-22.2,5.3-29.8,21.1-29.8,33.7h151.1H2225.4z"/>
	<path fill="#EBEBEC" d="M382.1,853.6l1.4,0c0-25.8-20.9-46.8-46.8-46.8c0-62.7-15.9-95.9-36-162.4c-20.1-66.5-17-183.3-17-183.3
		c10.8,0,17-16.2,17-16.2h3.9c6.8,0,12.4-5.5,12.4-12.4c0-6.8-5.5-12.4-12.4-12.4h-3.9c0,0-6.2-16.2-17-16.2
		c0,0,15.5-49.5,44.9-68.1c12.4-7-11.6-53.4-78.1-47.2c-66.5-6.2-90.5,40.2-78.1,47.2c29.4,18.6,44.9,68.1,44.9,68.1
		c-10.8,0-17,16.2-17,16.2h-3.9c-6.8,0-12.4,5.5-12.4,12.4c0,6.8,5.5,12.4,12.4,12.4h3.9c0,0,6.2,16.2,17,16.2
		c0,0,3.1,116.8-17,183.3s-36,99.8-36,162.4c-25.8,0-46.8,20.9-46.8,46.8l1.4,0c-24.1,5.3-32.3,21.1-32.3,33.7h164h164
		C414.4,874.6,406.2,858.9,382.1,853.6z"/>
	<path fill="#EBEBEC" d="M235,251.6c8.5,6.2-6.2,36.4-6.2,36.4h21.7h21.7c0,0-14.7-30.2-6.2-36.4c8.5-6.2,34.8,7,34.8,7V236v-0.6
		v-22.6c0,0-26.3,13.1-34.8,7s6.2-36.4,6.2-36.4h-21.7h-21.7c0,0,14.7,30.2,6.2,36.4s-34.8-7-34.8-7v22.6v0.6v22.6
		C200.2,258.6,226.4,245.5,235,251.6z"/>
	<path fill="#EBEBEC" d="M1804.8,1659.4l1.4,0c0-25.8-20.9-46.8-46.8-46.8c0-62.7-15.9-95.9-36-162.4s-17-183.3-17-183.3
		c10.8,0,17-16.2,17-16.2h3.9c6.8,0,12.4-5.5,12.4-12.4c0-6.8-5.5-12.4-12.4-12.4h-3.9c0,0-5.8-15.3-16-16.2
		c3.6-0.9-2.1-16,8.9-32.5c11.8-17.8,32.7-34,35.8-37.1s2.3-16.2,0-19.3s-21.8,0-21.8,0s-13-22-23.8-26.9
		c-5.9-2.6-15.2-3.8-22.4-4.4v-12.8c0-6-4.9-10.8-10.8-10.8c-6,0-10.8,4.9-10.8,10.8v12.8c-7.3,0.6-16.6,1.8-22.4,4.4
		c-10.8,4.8-23.8,26.9-23.8,26.9s-19.5-3.1-21.8,0s-3.1,16.2,0,19.3s24,19.3,35.8,37.1c11,16.5,5.3,31.7,8.9,32.5
		c-10.2,0.9-16,16.2-16,16.2h-3.9c-6.8,0-12.4,5.5-12.4,12.4c0,6.8,5.5,12.4,12.4,12.4h3.9c0,0,6.2,16.2,17,16.2
		c0,0,3.1,116.8-17,183.3s-36,99.8-36,162.4c-25.8,0-46.8,20.9-46.8,46.8l1.4,0c-24.1,5.3-32.3,21.1-32.3,33.7h164h164
		C1837.1,1680.5,1828.8,1664.8,1804.8,1659.4z"/>
	<path fill="#EBEBEC" d="M1431.4,1657.4l1.4,0c0-25.8-20.9-46.8-46.8-46.8c0-62.7-15.9-95.9-36-162.4s-17-102.9-17-102.9
		c10.8,0,17-16.2,17-16.2h3.9c6.8,0,12.4-5.5,12.4-12.4c0-6.8-5.5-12.4-12.4-12.4h-3.9c0,0-6.2-16.2-17-16.2
		c2.9,0.4,21.4-14.7,20.9-43.6c-0.5-28.9-35.1-71.7-42.8-74.8v-17.8c0-6.4-5.2-11.6-11.6-11.6h0c-6.4,0-11.6,5.2-11.6,11.6v17.8h0.5
		c-1.7,0.7-4.8,3.4-8.4,7.4l24.9,51.8l-11.3-3l-28.3-29.8c-10,14.9-19.3,33.5-19.6,48.4c-0.5,28.9,18,44,20.9,43.6
		c-10.8,0-17,16.2-17,16.2h-3.9c-6.8,0-12.4,5.5-12.4,12.4c0,6.8,5.5,12.4,12.4,12.4h3.9c0,0,6.2,16.2,17,16.2
		c0,0,3.1,36.4-17,102.9s-36,99.8-36,162.4c-25.8,0-46.8,20.9-46.8,46.8l1.4,0c-24.1,5.3-32.3,21.1-32.3,33.7h164h164
		C1463.8,1678.4,1455.5,1662.7,1431.4,1657.4z"/>
	<path fill="#EBEBEC" d="M1072.1,1657.4l1.3,0c0-25.8-19.9-46.8-44.4-46.8h-20.1v-28.9c0,0,9.3,2.1,35.1-38.2
		c25.8-40.2,49.5-92.8,41.3-155.7s-56.7-127.4-153.7-120.9c-6.4,0.8-11.7,1.4-16.2,1.9c0,0,0,0,0,0c-11.5,1.2-18,1.5-23.1,0.9
		c0,0,0,0,0,0c-0.3,0-0.6-0.1-0.8-0.1c0,0,0,0,0,0c-1.1-0.1-2.1-0.3-3.1-0.5c0,0-0.1,0-0.1,0c-0.2,0-0.4-0.1-0.6-0.1
		c-0.1,0-0.1,0-0.2-0.1c-0.2,0-0.4-0.1-0.6-0.2c-0.1,0-0.1,0-0.2-0.1c-0.6-0.2-1.2-0.3-1.9-0.5c-0.1,0-0.3-0.1-0.4-0.1
		c-0.2,0-0.3-0.1-0.5-0.1c-0.1,0-0.3-0.1-0.5-0.1c-0.1,0-0.3-0.1-0.4-0.1c-0.2-0.1-0.4-0.1-0.6-0.2c-0.1,0-0.2-0.1-0.4-0.1
		c-0.3-0.1-0.6-0.2-0.9-0.3c-0.7-0.2-1.4-0.5-2.2-0.7c-11.2-3.3-25.7-4.2-25.7-4.2v0c0,0,0,15.5,0,18.6c0,2.8-24.6,6.7-29.2,13.4
		c-0.5,0.7-0.7,1.4-0.7,2.2c0,7.4,16.1,14,19.1,20.9c0.1,0.2,0.2,0.4,0.2,0.6c0,0,0,0.1,0,0.1c0.1,0.5,0.2,1,0.2,1.4
		c0,5.9-4.2,7.1-5.3,12c0,0.2-0.1,0.4-0.1,0.7c0,0.2-0.1,0.4-0.1,0.6c-0.1,1.3-0.1,2.8,0.3,4.6c0,0.2,0.1,0.3,0.1,0.5
		c0.6,12.2-42.4,84.8-45.4,93.7c-0.1,0.3-0.2,0.6-0.2,0.9c-1.4,9.4,21.1,29,28.1,36c7,7,30.4-3.4,38.5-4.1c0.3,0,0.5,0,0.7,0
		c0.5,0,0.9-0.1,1.3-0.2c0.2-0.1,0.4-0.1,0.6-0.2c0.3-0.1,0.6-0.3,0.9-0.5c2.1-1.3,3.7-3.9,4.7-7.3c0.1-0.5,0.3-1,0.4-1.5
		c0.2-0.8,0.3-1.5,0.5-2.4c0.2-1.2,0.3-2.4,0.4-3.7c0-0.5,0-1,0-1.4c0-0.4,0-0.8,0-1.2c0-2.1-0.2-4.1-0.6-6.1
		c-2.1-10.7,4.1-16.9,17.5-17.9c13.4-1,28.9-22.4,36.1-22.1c2.7,0.1,4.1,1.8,4.2,4.4c0,0,0,0,0,0c0,0.3,0,0.6,0,0.9
		c-0.3,4.3-3.8,10.7-10.4,16.7c-11.3,10.3-48.5,55.7-52.6,78.4c-2.4,13.5-4.9,36,0,54.3c3.1,11.8,9.4,21.7,20.5,26.3
		c0.7,0.3,1.4,0.6,2.2,0.8h0v28.9h-20.1c-24.5,0-44.4,20.9-44.4,46.8l1.3,0c-22.9,5.3-30.7,21.1-30.7,33.7h155.8h155.8
		C1102.8,1678.4,1095,1662.7,1072.1,1657.4z"/>
	<path fill="#EBEBEC" d="M713.6,1657.4l1.3,0c0-25.8-19.7-46.8-44-46.8h-3.8c-5.9-87.1-26.2-166.7-26.2-166.7
		c16.7,0,26.2-25,26.2-25h6c10.5,0,19.1-8.5,19.1-19.1c0-10.5-8.5-19.1-19.1-19.1h-6l7.7-61.5h-32.5l-6.2,24.8h-23.2l-3.1-24.8
		h-20.1h-20.1l-3.1,24.8h-23.2l-6.2-24.8h-32.5l7.7,61.5h-6c-10.5,0-19.1,8.5-19.1,19.1c0,10.5,8.5,19.1,19.1,19.1h6
		c0,0,9.5,25,26.2,25c0,0-20.3,79.6-26.2,166.7h-3.8c-24.3,0-44,20.9-44,46.8l1.3,0c-22.7,5.3-30.4,21.1-30.4,33.7h154.3H744
		C744,1678.4,736.2,1662.7,713.6,1657.4z"/>
	<path fill="#EBEBEC" d="M358.8,1657.4l1.3,0c0-25.8-19.3-46.8-43.1-46.8h3.3c0,0-5.4-14.2-21.7-24.2
		c-16.2-10.1-31.7-43.6-31.7-72.5c1.4,0,2.7,0,3.9,0c10.8,0,17-16.2,17-16.2h3.9c6.8,0,12.4-5.5,12.4-12.4c0-6.8-5.5-12.4-12.4-12.4
		h-3.9c0,0-5.6-14.7-15.5-16.1c13.2-10.3,21.7-26.4,21.7-44.5c0-31.2-25.3-56.5-56.5-56.5s-56.5,25.3-56.5,56.5
		c0,18.1,8.5,34.1,21.7,44.5c-9.9,1.4-15.5,16.1-15.5,16.1h-3.9c-6.8,0-12.4,5.5-12.4,12.4c0,6.8,5.5,12.4,12.4,12.4h3.9
		c0,0,6.2,16.2,17,16.2c1.2,0,2.5,0,3.9,0c0,28.9-15.5,62.4-31.7,72.5c-16.2,10.1-21.7,24.2-21.7,24.2h3.3
		c-23.8,0-43.1,20.9-43.1,46.8l1.3,0c-22.2,5.3-29.8,21.1-29.8,33.7h151.1h151.1C388.6,1678.4,381,1662.7,358.8,1657.4z"/>
	<path fill="#EBEBEC" d="M2193.1,1659.4l1.4,0c0-25.8-20.9-46.8-46.8-46.8c0-62.7-15.9-95.9-36-162.4c-20.1-66.5-17-183.3-17-183.3
		c10.8,0,17-16.2,17-16.2h3.9c6.8,0,12.4-5.5,12.4-12.4c0-6.8-5.5-12.4-12.4-12.4h-3.9c0,0-6.2-16.2-17-16.2
		c0,0,15.5-49.5,44.9-68.1c12.4-7-11.6-53.4-78.1-47.2c-66.5-6.2-90.5,40.2-78.1,47.2c29.4,18.6,44.9,68.1,44.9,68.1
		c-10.8,0-17,16.2-17,16.2h-3.9c-6.8,0-12.4,5.5-12.4,12.4c0,6.8,5.5,12.4,12.4,12.4h3.9c0,0,6.2,16.2,17,16.2
		c0,0,3.1,116.8-17,183.3s-36,99.8-36,162.4c-25.8,0-46.8,20.9-46.8,46.8l1.4,0c-24.1,5.3-32.3,21.1-32.3,33.7h164h164
		C2225.4,1680.5,2217.1,1664.8,2193.1,1659.4z"/>
	<path fill="#EBEBEC" d="M2076.9,1057.5c8.5-6.2,34.8,7,34.8,7v-22.6v-0.6v-22.6c0,0-26.3,13.1-34.8,7s6.2-36.4,6.2-36.4h-21.7
		h-21.7c0,0,14.7,30.2,6.2,36.4c-8.5,6.2-34.8-7-34.8-7v22.6v0.6v22.6c0,0,26.3-13.1,34.8-7c8.5,6.2-6.2,36.4-6.2,36.4h21.7h21.7
		C2083.1,1093.9,2068.4,1063.7,2076.9,1057.5z"/>
	<g>
		<path fill="#622F00" d="M626.5,268.1c-6,0-10.8,4.9-10.8,10.8v24.8c0,6,4.9,10.8,10.8,10.8s10.8-4.9,10.8-10.8v-24.8
			C637.3,272.9,632.4,268.1,626.5,268.1z"/>
		<path fill="#622F00" d="M739.4,859.8c-38.7,0-112.9,0-112.9,0s-74.3,0-112.9,0s-51.1,20.1-51.1,35.6h164h164
			C790.5,879.9,778.1,859.8,739.4,859.8z"/>
		<path fill="#F99D25" d="M712.8,814.9h-86.3h-86.3c-25.8,0-46.8,20.9-46.8,46.8l133-1.9l133,1.9
			C759.5,835.9,738.6,814.9,712.8,814.9z"/>
		<path fill="#622F00" d="M680.6,428.2h-54.1h-54.1c-6.8,0-12.4,5.5-12.4,12.4c0,6.8,5.5,12.4,12.4,12.4h54.1h54.1
			c6.8,0,12.4-5.5,12.4-12.4C693,433.7,687.5,428.2,680.6,428.2z"/>
		<path fill="#F99D25" d="M626.5,452.9h-50.3c0,0,6.2,16.2,17,16.2c10.8,0,33.3,0,33.3,0s22.4,0,33.3,0s17-16.2,17-16.2H626.5z"/>
		<path fill="#F99D25" d="M659.7,411.9c-10.8,0-33.3,0-33.3,0s-22.4,0-33.3,0c-10.8,0-17,16.2-17,16.2h50.3h50.3
			C676.8,428.2,670.6,411.9,659.7,411.9z"/>
		<path fill="#622F00" d="M676.8,652.5c-20.1-66.5-17-183.3-17-183.3h-33.3h-33.3c0,0,3.1,116.8-17,183.3s-36,99.8-36,162.4h86.3
			h86.3C712.8,752.3,696.9,719,676.8,652.5z"/>
		<path fill="#F99D25" d="M683.6,323c0,0-13-22-23.8-26.9c-10.8-4.8-33.3-4.8-33.3-4.8s-22.4,0-33.3,4.8
			c-10.8,4.8-23.8,26.9-23.8,26.9l-9.4,13.9l20.1,13.1l30.2,4l16.2-32.4l16.2,32.4l30.2-4l20.1-13.1L683.6,323z"/>
		<path fill="#622F00" d="M705.4,323c-2.3-3.1-21.8,0-21.8,0s-0.2,11.6-14,13.1c-13.7,1.5-30-14.5-30-14.5h-13.1h-13.1
			c0,0-16.2,16.1-30,14.5s-14-13.1-14-13.1s-19.5-3.1-21.8,0s-3.1,16.2,0,19.3c3.1,3.1,24,19.3,35.8,37.1s4.4,34,9.9,32.5h33.3h33.3
			c5.5,1.5-1.9-14.7,9.9-32.5c11.8-17.8,32.7-34,35.8-37.1C708.5,339.2,707.7,326.1,705.4,323z"/>
	</g>
	<g>
		<path fill="#622F00" d="M1112.8,857.7c-38.7,0-112.9,0-112.9,0s-74.3,0-112.9,0c-38.7,0-51.1,20.1-51.1,35.6h164h164
			C1163.8,877.8,1151.4,857.7,1112.8,857.7z"/>
		<path fill="#F99D25" d="M1086.1,812.9h-86.3h-86.3c-25.8,0-46.8,20.9-46.8,46.8l133-1.9l133,1.9
			C1132.9,833.8,1111.9,812.9,1086.1,812.9z"/>
		<path fill="#F99D25" d="M1054,506.6h-54.1h-54.1c-6.8,0-12.4,5.5-12.4,12.4c0,6.8,5.5,12.4,12.4,12.4h54.1h54.1
			c6.8,0,12.4-5.5,12.4-12.4C1066.3,512.1,1060.8,506.6,1054,506.6z"/>
		<path fill="#F99D25" d="M999.8,531.3h-50.3c0,0,6.2,16.2,17,16.2c10.8,0,33.3,0,33.3,0s22.4,0,33.3,0c10.8,0,17-16.2,17-16.2
			H999.8z"/>
		<path fill="#F99D25" d="M1033.1,490.3c-10.8,0-33.3,0-33.3,0s-22.4,0-33.3,0c-10.8,0-17,16.2-17,16.2h50.3h50.3
			C1050.1,506.6,1043.9,490.3,1033.1,490.3z"/>
		<path fill="#622F00" d="M1050.1,650.4c-20.1-66.5-17-102.9-17-102.9h-33.3h-33.3c0,0,3.1,36.4-17,102.9s-36,99.8-36,162.4h86.3
			h86.3C1086.1,750.2,1070.2,717,1050.1,650.4z"/>
		<path fill="#622F00" d="M1034.4,398.3l-28.3,29.8l-11.3,3l24.9-51.8c-3.7-4-6.7-6.7-8.4-7.4h-11.3h-11.3
			c-7.7,3.1-42.3,45.9-42.8,74.8c-0.5,28.9,18,44,20.9,43.6h33.3h33.3c2.9,0.4,21.4-14.7,20.9-43.6
			C1053.7,431.9,1044.4,413.3,1034.4,398.3z"/>
		<path fill="#F99D25" d="M988.5,372v-17.8c0-6.4,5.2-11.6,11.6-11.6l0,0c6.4,0,11.6,5.2,11.6,11.6V372H988.5z"/>
	</g>
	<g>
		<path fill="#622F00" d="M1459.8,857.7c-36.7,0-107.3,0-107.3,0s-70.5,0-107.3,0c-36.7,0-48.5,20.1-48.5,35.6h155.8h155.8
			C1508.3,877.8,1496.6,857.7,1459.8,857.7z"/>
		<path fill="#F99D25" d="M1434.5,812.9h-82h-82c-24.5,0-44.4,20.9-44.4,46.8l126.4-1.9l126.4,1.9
			C1478.9,833.8,1459,812.9,1434.5,812.9z"/>
		<rect x="1290.7" y="784" fill="#622F00" width="123.8" height="28.9"/>
		<path fill="#F99D25" d="M1290.7,784c0,0-9.3,2.1-35.1-38.2c-25.8-40.2-49.5-92.8-41.3-155.7c8.3-62.9,56.7-127.4,153.7-120.9
			c35.1,4.4,39.2,3.9,50.5,0c11.3-3.9,27.8-4.9,27.8-4.9s0,15.5,0,18.6s29.9,7.5,29.9,15.6c0,8.1-19.6,15.3-19.6,23.1
			c0,7.7,7.2,7.5,5.2,17.9c-2.1,10.4,42.3,85.2,45.4,94.2c3.1,9.1-20.6,29.7-27.8,36.9c-7.2,7.2-32-4.1-39.2-4.1
			s-10.3-13.7-8.3-24.4c2.1-10.7-4.1-16.9-17.5-17.9c-13.4-1-28.9-22.4-36.1-22.1c-7.2,0.4-5.2,11.7,6.2,22.1
			c11.3,10.3,48.5,55.7,52.6,78.4s8.3,71.2-22.7,81.5H1290.7z"/>
		<path fill="#622F00" d="M1507.2,633.7c-3.1-9.1-47.4-83.8-45.4-94.2c2.1-10.4-5.2-10.2-5.2-17.9c0-7.7,19.6-15,19.6-23.1
			c0-8.1-29.9-12.5-29.9-15.6c0-3.1,0-18.6,0-18.6s-16.5,1-27.8,4.9c-9.3,3.2-13.8,4.1-34.3,1.9c-23.7,10.3-48.1,25.6-62.7,47.9
			c-33.7,51.6-67.4,143.3,42.2,265.1h50.6c30.9-10.3,26.8-58.8,22.7-81.5s-41.3-68.1-52.6-78.4c-11.3-10.3-13.4-21.7-6.2-22.1
			s22.7,21,36.1,22.1c13.4,1,19.6,7.2,17.5,17.9c-2.1,10.7,1,24.4,8.3,24.4s32,11.3,39.2,4.1
			C1486.6,663.3,1510.3,642.7,1507.2,633.7z"/>
	</g>
	<g>
		<path fill="#622F00" d="M1816.2,857.7c-36.4,0-106.3,0-106.3,0s-69.9,0-106.3,0c-36.4,0-48,20.1-48,35.6h154.3h154.3
			C1864.2,877.8,1852.5,857.7,1816.2,857.7z"/>
		<path fill="#F99D25" d="M1791.1,812.9h-81.2h-81.2c-24.3,0-44,20.9-44,46.8l125.2-1.9l125.2,1.9
			C1835.1,833.8,1815.4,812.9,1791.1,812.9z"/>
		<path fill="#622F00" d="M1793.2,583h-83.4h-83.4c-10.5,0-19.1,8.5-19.1,19.1c0,10.5,8.5,19.1,19.1,19.1h83.4h83.4
			c10.5,0,19.1-8.5,19.1-19.1C1812.3,591.6,1803.8,583,1793.2,583z"/>
		<path fill="#F99D25" d="M1709.9,621.1h-77.4c0,0,9.5,25,26.2,25s51.2,0,51.2,0s34.5,0,51.2,0s26.2-25,26.2-25H1709.9z"/>
		<path fill="#622F00" d="M1761.1,646.2h-51.2h-51.2c0,0-20.3,79.6-26.2,166.7h77.4h77.4C1781.4,725.7,1761.1,646.2,1761.1,646.2z"
			/>
		<polygon fill="#F99D25" points="1762.5,521.5 1756.3,546.3 1733.1,546.3 1730,521.5 1709.9,521.5 1689.8,521.5 1686.7,546.3 
			1663.5,546.3 1657.3,521.5 1624.8,521.5 1632.5,583 1709.9,583 1787.3,583 1795,521.5 		"/>
	</g>
	<g>
		<circle fill="#622F00" cx="2062.1" cy="614.6" r="56.5"/>
		<path fill="#622F00" d="M2166.1,857.7c-35.6,0-104,0-104,0s-68.4,0-104,0c-35.6,0-47,20.1-47,35.6h151.1h151.1
			C2213.2,877.8,2201.8,857.7,2166.1,857.7z"/>
		<path fill="#F99D25" d="M2141.6,812.9h-79.5h-79.5c-23.8,0-43.1,20.9-43.1,46.8l122.6-1.9l122.6,1.9
			C2184.7,833.8,2165.4,812.9,2141.6,812.9z"/>
		<path fill="#622F00" d="M2116.2,675.2h-54.1H2008c-6.8,0-12.4,5.5-12.4,12.4c0,6.8,5.5,12.4,12.4,12.4h54.1h54.1
			c6.8,0,12.4-5.5,12.4-12.4C2128.6,680.7,2123.1,675.2,2116.2,675.2z"/>
		<path fill="#F99D25" d="M2062.1,699.9h-50.3c0,0,6.2,16.2,17,16.2s33.3,0,33.3,0s22.4,0,33.3,0s17-16.2,17-16.2H2062.1z"/>
		<path fill="#F99D25" d="M2095.4,658.9c-10.8,0-33.3,0-33.3,0s-22.4,0-33.3,0s-17,16.2-17,16.2h50.3h50.3
			C2112.4,675.2,2106.2,658.9,2095.4,658.9z"/>
		<path fill="#622F00" d="M2123.2,788.6c-16.2-10.1-31.7-43.6-31.7-72.5h-29.4h-29.4c0,28.9-15.5,62.4-31.7,72.5
			c-16.2,10.1-21.7,24.2-21.7,24.2h82.8h82.8C2144.9,812.9,2139.4,798.7,2123.2,788.6z"/>
	</g>
	<g>
		<path fill="#622F00" d="M351.1,859.8c-38.7,0-112.9,0-112.9,0s-74.3,0-112.9,0s-51.1,20.1-51.1,35.6h164h164
			C402.2,879.9,389.8,859.8,351.1,859.8z"/>
		<path fill="#F99D25" d="M324.5,814.9h-86.3h-86.3c-25.8,0-46.8,20.9-46.8,46.8l133-1.9l133,1.9
			C371.2,835.9,350.3,814.9,324.5,814.9z"/>
		<path fill="#622F00" d="M292.3,428.2h-54.1H184c-6.8,0-12.4,5.5-12.4,12.4c0,6.8,5.5,12.4,12.4,12.4h54.1h54.1
			c6.8,0,12.4-5.5,12.4-12.4C304.7,433.7,299.2,428.2,292.3,428.2z"/>
		<path fill="#F99D25" d="M238.2,452.9h-50.3c0,0,6.2,16.2,17,16.2c10.8,0,33.3,0,33.3,0s22.4,0,33.3,0s17-16.2,17-16.2H238.2z"/>
		<path fill="#F99D25" d="M271.4,411.9c-10.8,0-33.3,0-33.3,0s-22.4,0-33.3,0c-10.8,0-17,16.2-17,16.2h50.3h50.3
			C288.5,428.2,282.3,411.9,271.4,411.9z"/>
		<path fill="#622F00" d="M288.5,652.5c-20.1-66.5-17-183.3-17-183.3h-33.3h-33.3c0,0,3.1,116.8-17,183.3s-36,99.8-36,162.4h86.3
			h86.3C324.5,752.3,308.6,719,288.5,652.5z"/>
		<path fill="#F99D25" d="M253.7,227.8c-8.5-6.2,6.2-36.4,6.2-36.4h-21.7h-21.7c0,0,14.7,30.2,6.2,36.4c-8.5,6.2-34.8-7-34.8-7v22.6
			v0.6v22.6c0,0,26.3-13.1,34.8-7c8.5,6.2-6.2,36.4-6.2,36.4h21.7h21.7c0,0-14.7-30.2-6.2-36.4c8.5-6.2,34.8,7,34.8,7v-22.6v-0.6
			v-22.6C288.5,220.9,262.2,234,253.7,227.8z"/>
		<path fill="#622F00" d="M238.2,296.7c-66.5-6.2-90.5,40.2-78.1,47.2c29.4,18.6,44.9,68.1,44.9,68.1h33.3h33.3
			c0,0,15.5-49.5,44.9-68.1C328.7,336.9,304.7,290.5,238.2,296.7z"/>
	</g>
	<g>
		<path fill="#F99D25" d="M1660.9,1073.9c6,0,10.8,4.9,10.8,10.8v24.8c0,6-4.9,10.8-10.8,10.8c-6,0-10.8-4.9-10.8-10.8v-24.8
			C1650,1078.8,1654.9,1073.9,1660.9,1073.9z"/>
		<path fill="#F99D25" d="M1547.9,1665.7c38.7,0,112.9,0,112.9,0s74.3,0,112.9,0s51.1,20.1,51.1,35.6h-164h-164
			C1496.9,1685.8,1509.3,1665.7,1547.9,1665.7z"/>
		<path fill="#622F00" d="M1574.6,1620.8h86.3h86.3c25.8,0,46.8,20.9,46.8,46.8l-133-1.9l-133,1.9
			C1527.8,1641.7,1548.8,1620.8,1574.6,1620.8z"/>
		<path fill="#F99D25" d="M1606.7,1234h54.1h54.1c6.8,0,12.4,5.5,12.4,12.4s-5.5,12.4-12.4,12.4h-54.1h-54.1
			c-6.8,0-12.4-5.5-12.4-12.4S1599.9,1234,1606.7,1234z"/>
		<path fill="#622F00" d="M1660.9,1258.8h50.3c0,0-6.2,16.2-17,16.2s-33.3,0-33.3,0s-22.4,0-33.3,0s-17-16.2-17-16.2H1660.9z"/>
		<path fill="#622F00" d="M1627.6,1217.8c10.8,0,33.3,0,33.3,0s22.4,0,33.3,0s17,16.2,17,16.2h-50.3h-50.3
			C1610.6,1234,1616.8,1217.8,1627.6,1217.8z"/>
		<path fill="#F99D25" d="M1610.6,1458.4c20.1-66.5,17-183.3,17-183.3h33.3h33.3c0,0-3.1,116.8,17,183.3c20.1,66.5,36,99.8,36,162.4
			h-86.3h-86.3C1574.6,1558.1,1590.5,1524.9,1610.6,1458.4z"/>
		<path fill="#622F00" d="M1603.8,1128.8c0,0,13-22,23.8-26.9c10.8-4.8,33.3-4.8,33.3-4.8s22.4,0,33.3,4.8
			c10.8,4.8,23.8,26.9,23.8,26.9l9.4,13.9l-20.1,13.1l-30.2,4l-16.2-32.4l-16.2,32.4l-30.2-4l-20.1-13.1L1603.8,1128.8z"/>
		<path fill="#F99D25" d="M1582,1128.8c2.3-3.1,21.8,0,21.8,0s0.2,11.6,14,13.1s30-14.5,30-14.5h13.1h13.1c0,0,16.2,16.1,30,14.5
			c13.7-1.5,14-13.1,14-13.1s19.5-3.1,21.8,0c2.3,3.1,3.1,16.2,0,19.3c-3.1,3.1-24,19.3-35.8,37.1c-11.8,17.8-4.4,34-9.9,32.5h-33.3
			h-33.3c-5.5,1.5,1.9-14.7-9.9-32.5c-11.8-17.8-32.7-34-35.8-37.1S1579.7,1131.9,1582,1128.8z"/>
	</g>
	<g>
		<path fill="#F99D25" d="M1174.6,1663.6c38.7,0,112.9,0,112.9,0s74.3,0,112.9,0c38.7,0,51.1,20.1,51.1,35.6h-164h-164
			C1123.5,1683.7,1135.9,1663.6,1174.6,1663.6z"/>
		<path fill="#622F00" d="M1201.3,1618.7h86.3h86.3c25.8,0,46.8,20.9,46.8,46.8l-133-1.9l-133,1.9
			C1154.5,1639.7,1175.4,1618.7,1201.3,1618.7z"/>
		<path fill="#F99D25" d="M1233.4,1312.4h54.1h54.1c6.8,0,12.4,5.5,12.4,12.4c0,6.8-5.5,12.4-12.4,12.4h-54.1h-54.1
			c-6.8,0-12.4-5.5-12.4-12.4C1221,1318,1226.6,1312.4,1233.4,1312.4z"/>
		<path fill="#622F00" d="M1287.5,1337.2h50.3c0,0-6.2,16.2-17,16.2s-33.3,0-33.3,0s-22.4,0-33.3,0s-17-16.2-17-16.2H1287.5z"/>
		<path fill="#622F00" d="M1254.3,1296.2c10.8,0,33.3,0,33.3,0s22.4,0,33.3,0s17,16.2,17,16.2h-50.3h-50.3
			C1237.3,1312.4,1243.4,1296.2,1254.3,1296.2z"/>
		<path fill="#F99D25" d="M1237.3,1456.3c20.1-66.5,17-102.9,17-102.9h33.3h33.3c0,0-3.1,36.4,17,102.9c20.1,66.5,36,99.8,36,162.4
			h-86.3h-86.3C1201.3,1556.1,1217.1,1522.8,1237.3,1456.3z"/>
		<path fill="#F99D25" d="M1253,1204.2l28.3,29.8l11.3,3l-24.9-51.8c3.7-4,6.7-6.7,8.4-7.4h11.3h11.3c7.7,3.1,42.3,45.9,42.8,74.8
			c0.5,28.9-18,44-20.9,43.6h-33.3h-33.3c-2.9,0.4-21.4-14.7-20.9-43.6C1233.7,1237.7,1243,1219.2,1253,1204.2z"/>
		<path fill="#622F00" d="M1298.9,1177.8V1160c0-6.4-5.2-11.6-11.6-11.6l0,0c-6.4,0-11.6,5.2-11.6,11.6v17.8H1298.9z"/>
	</g>
	<g>
		<path fill="#F99D25" d="M827.5,1663.6c36.7,0,107.3,0,107.3,0s70.5,0,107.3,0s48.5,20.1,48.5,35.6H934.8H779
			C779,1683.7,790.8,1663.6,827.5,1663.6z"/>
		<path fill="#622F00" d="M852.9,1618.7h82h82c24.5,0,44.4,20.9,44.4,46.8l-126.4-1.9l-126.4,1.9
			C808.4,1639.7,828.3,1618.7,852.9,1618.7z"/>
		<rect x="872.9" y="1589.9" fill="#F99D25" width="123.8" height="28.9"/>
		<path fill="#622F00" d="M996.7,1589.9c0,0,9.3,2.1,35.1-38.2c25.8-40.2,49.5-92.8,41.3-155.7c-8.3-62.9-56.7-127.4-153.7-120.9
			c-35.1,4.4-39.2,3.9-50.5,0s-27.8-4.9-27.8-4.9s0,15.5,0,18.6s-29.9,7.5-29.9,15.6c0,8.1,19.6,15.3,19.6,23.1
			c0,7.7-7.2,7.5-5.2,17.9c2.1,10.4-42.3,85.2-45.4,94.2c-3.1,9.1,20.6,29.7,27.8,36.9c7.2,7.2,32-4.1,39.2-4.1
			c7.2,0,10.3-13.7,8.3-24.4c-2.1-10.7,4.1-16.9,17.5-17.9c13.4-1,28.9-22.4,36.1-22.1c7.2,0.4,5.2,11.7-6.2,22.1
			s-48.5,55.7-52.6,78.4c-4.1,22.7-8.3,71.2,22.7,81.5H996.7z"/>
		<path fill="#F99D25" d="M780.1,1439.5c3.1-9.1,47.4-83.8,45.4-94.2c-2.1-10.4,5.2-10.2,5.2-17.9c0-7.7-19.6-15-19.6-23.1
			c0-8.1,29.9-12.5,29.9-15.6s0-18.6,0-18.6s16.5,1,27.8,4.9c9.3,3.2,13.8,4.1,34.3,1.9c23.7,10.3,48.1,25.6,62.7,47.9
			c33.7,51.6,67.4,143.3-42.2,265.1h-50.6c-30.9-10.3-26.8-58.8-22.7-81.5c4.1-22.7,41.3-68.1,52.6-78.4
			c11.3-10.3,13.4-21.7,6.2-22.1c-7.2-0.4-22.7,21-36.1,22.1c-13.4,1-19.6,7.2-17.5,17.9c2.1,10.7-1,24.4-8.3,24.4
			c-7.2,0-32,11.3-39.2,4.1C800.7,1469.2,777,1448.6,780.1,1439.5z"/>
	</g>
	<g>
		<path fill="#F99D25" d="M471.2,1663.6c36.4,0,106.3,0,106.3,0s69.9,0,106.3,0c36.4,0,48,20.1,48,35.6H577.5H423.2
			C423.2,1683.7,434.8,1663.6,471.2,1663.6z"/>
		<path fill="#622F00" d="M496.3,1618.7h81.2h81.2c24.3,0,44,20.9,44,46.8l-125.2-1.9l-125.2,1.9
			C452.3,1639.7,472,1618.7,496.3,1618.7z"/>
		<path fill="#F99D25" d="M494.1,1388.9h83.4h83.4c10.5,0,19.1,8.5,19.1,19.1c0,10.5-8.5,19.1-19.1,19.1h-83.4h-83.4
			c-10.5,0-19.1-8.5-19.1-19.1C475.1,1397.4,483.6,1388.9,494.1,1388.9z"/>
		<path fill="#622F00" d="M577.5,1427h77.4c0,0-9.5,25-26.2,25s-51.2,0-51.2,0s-34.5,0-51.2,0c-16.7,0-26.2-25-26.2-25H577.5z"/>
		<path fill="#F99D25" d="M526.3,1452h51.2h51.2c0,0,20.3,79.6,26.2,166.7h-77.4h-77.4C505.9,1531.6,526.3,1452,526.3,1452z"/>
		<polygon fill="#622F00" points="524.9,1327.4 531,1352.1 554.3,1352.1 557.3,1327.4 577.5,1327.4 597.6,1327.4 600.7,1352.1 
			623.9,1352.1 630.1,1327.4 662.5,1327.4 654.9,1388.9 577.5,1388.9 500.1,1388.9 492.4,1327.4 		"/>
	</g>
	<g>
		<circle fill="#F99D25" cx="225.3" cy="1420.5" r="56.5"/>
		<path fill="#F99D25" d="M121.2,1663.6c35.6,0,104,0,104,0s68.4,0,104,0s47,20.1,47,35.6H225.3H74.2
			C74.2,1683.7,85.6,1663.6,121.2,1663.6z"/>
		<path fill="#622F00" d="M145.8,1618.7h79.5h79.5c23.8,0,43.1,20.9,43.1,46.8l-122.6-1.9l-122.6,1.9
			C102.7,1639.7,122,1618.7,145.8,1618.7z"/>
		<path fill="#F99D25" d="M171.1,1481h54.1h54.1c6.8,0,12.4,5.5,12.4,12.4c0,6.8-5.5,12.4-12.4,12.4h-54.1h-54.1
			c-6.8,0-12.4-5.5-12.4-12.4C158.7,1486.6,164.3,1481,171.1,1481z"/>
		<path fill="#622F00" d="M225.3,1505.8h50.3c0,0-6.2,16.2-17,16.2s-33.3,0-33.3,0s-22.4,0-33.3,0c-10.8,0-17-16.2-17-16.2H225.3z"
			/>
		<path fill="#622F00" d="M192,1464.8c10.8,0,33.3,0,33.3,0s22.4,0,33.3,0s17,16.2,17,16.2h-50.3H175
			C175,1481,181.2,1464.8,192,1464.8z"/>
		<path fill="#F99D25" d="M164.2,1594.5c16.2-10.1,31.7-43.6,31.7-72.5h29.4h29.4c0,28.9,15.5,62.4,31.7,72.5s21.7,24.2,21.7,24.2
			h-82.8h-82.8C142.5,1618.7,147.9,1604.6,164.2,1594.5z"/>
	</g>
	<g>
		<path fill="#F99D25" d="M1936.2,1665.7c38.7,0,112.9,0,112.9,0s74.3,0,112.9,0s51.1,20.1,51.1,35.6h-164h-164
			C1885.2,1685.8,1897.6,1665.7,1936.2,1665.7z"/>
		<path fill="#622F00" d="M1962.9,1620.8h86.3h86.3c25.8,0,46.8,20.9,46.8,46.8l-133-1.9l-133,1.9
			C1916.1,1641.7,1937.1,1620.8,1962.9,1620.8z"/>
		<path fill="#F99D25" d="M1995,1234h54.1h54.1c6.8,0,12.4,5.5,12.4,12.4s-5.5,12.4-12.4,12.4h-54.1H1995c-6.8,0-12.4-5.5-12.4-12.4
			S1988.2,1234,1995,1234z"/>
		<path fill="#622F00" d="M2049.2,1258.8h50.3c0,0-6.2,16.2-17,16.2c-10.8,0-33.3,0-33.3,0s-22.4,0-33.3,0s-17-16.2-17-16.2H2049.2z
			"/>
		<path fill="#622F00" d="M2015.9,1217.8c10.8,0,33.3,0,33.3,0s22.4,0,33.3,0c10.8,0,17,16.2,17,16.2h-50.3h-50.3
			C1998.9,1234,2005.1,1217.8,2015.9,1217.8z"/>
		<path fill="#F99D25" d="M1998.9,1458.4c20.1-66.5,17-183.3,17-183.3h33.3h33.3c0,0-3.1,116.8,17,183.3c20.1,66.5,36,99.8,36,162.4
			h-86.3h-86.3C1962.9,1558.1,1978.8,1524.9,1998.9,1458.4z"/>
		<path fill="#622F00" d="M2033.7,1033.7c8.5-6.2-6.2-36.4-6.2-36.4h21.7h21.7c0,0-14.7,30.2-6.2,36.4c8.5,6.2,34.8-7,34.8-7v22.6
			v0.6v22.6c0,0-26.3-13.1-34.8-7c-8.5,6.2,6.2,36.4,6.2,36.4h-21.7h-21.7c0,0,14.7-30.2,6.2-36.4c-8.5-6.2-34.8,7-34.8,7V1050v-0.6
			v-22.6C1998.9,1026.7,2025.2,1039.9,2033.7,1033.7z"/>
		<path fill="#F99D25" d="M2049.2,1102.6c66.5-6.2,90.5,40.2,78.1,47.2c-29.4,18.6-44.9,68.1-44.9,68.1h-33.3h-33.3
			c0,0-15.5-49.5-44.9-68.1C1958.7,1142.8,1982.6,1096.4,2049.2,1102.6z"/>
	</g>
</g>
</svg>
